<!DOCTYPE svg PUBLIC "-//W3C//DTD SVG 20010904//EN" "http://www.w3.org/TR/2001/REC-SVG-20010904/DTD/svg10.dtd">
<svg version="1.0" xmlns="http://www.w3.org/2000/svg" width="500px" height="158px" viewBox="0 0 5000 1580" preserveAspectRatio="xMidYMid meet">
<g id="layer101" fill="#a6a6a6" stroke="none">
<path d="M4340 630 l0 -99 -97 -3 -98 -3 0 -135 0 -135 98 -3 97 -3 0 -99 0 -100 145 0 145 0 0 100 0 100 100 0 100 0 0 140 0 140 -100 0 -100 0 0 100 0 100 -145 0 -145 0 0 -100z"/>
</g>
<g id="layer102" fill="#ffffff" stroke="none">
<path d="M3557 1500 c-57 -15 -90 -35 -131 -80 -69 -76 -70 -85 -74 -377 l-3 -263 -65 0 -64 0 0 -93 0 -93 63 -26 62 -26 3 -106 3 -107 132 3 132 3 3 103 3 102 125 0 125 0 -3 118 -3 117 -122 3 -123 3 0 200 c0 232 5 248 77 275 41 16 89 15 151 -2 l23 -7 -3 114 -3 114 -50 13 c-65 17 -210 24 -258 12z"/>
<path d="M1603 1490 c-204 -37 -368 -184 -418 -377 -69 -265 123 -548 403 -594 313 -52 590 244 536 573 l-7 38 -331 2 -331 3 46 46 c70 70 118 89 225 89 59 0 114 -7 163 -20 60 -17 76 -18 83 -8 13 19 78 147 78 153 0 10 -119 64 -176 79 -77 20 -206 27 -271 16z m257 -575 c0 -3 -9 -22 -19 -43 -37 -72 -113 -122 -184 -122 -56 0 -138 48 -174 104 -18 26 -33 52 -33 57 0 5 92 9 205 9 113 0 205 -2 205 -5z"/>
<path d="M120 805 l0 -666 338 3 337 3 57 27 c76 35 151 107 185 177 25 50 28 67 28 156 0 92 -2 104 -30 154 -16 29 -39 61 -51 70 -22 16 -21 16 36 78 121 129 143 318 55 468 -36 60 -115 132 -183 163 l-57 27 -357 3 -358 3 0 -666z m660 390 c93 -48 98 -216 8 -275 -18 -12 -64 -16 -200 -18 l-178 -4 0 156 0 156 170 0 c131 0 178 -3 200 -15z m-26 -569 c46 -19 66 -52 66 -107 0 -41 -4 -51 -35 -78 l-36 -31 -169 0 -170 0 0 115 0 115 155 0 c111 0 165 -4 189 -14z"/>
<path d="M2310 1125 l0 -345 -60 0 -60 0 0 -74 0 -75 59 -45 59 -45 4 -98 c5 -125 37 -202 111 -268 83 -76 237 -105 367 -72 l45 12 -2 65 c-2 36 -6 80 -9 99 l-5 33 -72 -6 c-126 -12 -177 36 -177 167 l0 67 125 0 125 0 0 120 0 120 -125 0 -125 0 0 345 0 345 -130 0 -130 0 0 -345z"/>
<path d="M2890 1005 l0 -465 135 0 135 0 0 465 0 465 -135 0 -135 0 0 -465z"/>
<path d="M2954 401 c-53 -32 -74 -68 -74 -125 0 -93 54 -146 149 -146 42 0 56 5 86 31 82 73 66 205 -31 245 -46 19 -93 17 -130 -5z"/>
</g>


</svg>